<?xml version="1.0" standalone="no"?>
<!DOCTYPE svg PUBLIC "-//W3C//DTD SVG 20010904//EN"
 "http://www.w3.org/TR/2001/REC-SVG-20010904/DTD/svg10.dtd">
<svg version="1.0" xmlns="http://www.w3.org/2000/svg"
 width="1024.000000pt" height="1024.000000pt" viewBox="0 0 1024.000000 1024.000000"
 preserveAspectRatio="xMidYMid meet">
<metadata>
Created by potrace 1.11, written by Peter Selinger 2001-2013
</metadata>
<g transform="translate(0.000000,1024.000000) scale(0.100000,-0.100000)"
fill="#000000" stroke="none">
<path d="M4888 10235 c-2 -1 -48 -5 -103 -9 -116 -7 -182 -13 -245 -21 -25 -3
-65 -8 -90 -11 -44 -6 -348 -57 -402 -69 -281 -58 -659 -179 -958 -306 -161
-68 -657 -330 -680 -359 -3 -4 -12 -10 -20 -13 -17 -8 -35 -20 -141 -92 -453
-305 -905 -740 -1249 -1201 -86 -115 -267 -391 -311 -474 -13 -25 -29 -52 -35
-60 -23 -29 -193 -376 -248 -509 -94 -223 -175 -459 -236 -687 -22 -81 -76
-321 -84 -374 -3 -19 -10 -57 -15 -85 -5 -27 -13 -77 -16 -110 -4 -33 -9 -67
-10 -75 -3 -13 -12 -95 -21 -185 -25 -249 -25 -803 1 -975 2 -14 6 -55 10 -92
3 -37 7 -75 9 -85 2 -10 7 -40 10 -68 11 -76 17 -115 22 -139 2 -11 7 -37 10
-56 9 -51 58 -279 68 -315 2 -5 6 -23 11 -40 149 -587 430 -1186 794 -1695 69
-97 201 -265 262 -335 110 -125 143 -162 229 -250 157 -161 260 -257 410 -380
47 -38 87 -72 90 -75 3 -3 30 -23 60 -45 30 -22 57 -42 60 -46 15 -18 302
-210 425 -284 319 -192 685 -358 1050 -477 186 -61 522 -146 645 -163 25 -4
63 -10 85 -15 22 -5 63 -11 90 -15 28 -3 57 -8 65 -10 8 -2 47 -7 85 -10 39
-4 102 -11 140 -15 75 -9 946 -7 980 2 11 3 54 9 95 13 41 4 77 8 80 10 3 1
31 6 63 9 32 4 92 13 135 21 42 8 91 17 107 20 17 3 41 8 55 11 27 6 50 11 90
19 20 4 226 57 265 69 6 1 30 8 55 15 68 18 171 51 210 66 19 7 69 26 110 40
253 91 610 262 855 410 640 385 1167 880 1597 1500 63 91 208 322 208 331 0 3
9 18 19 33 24 33 203 383 219 426 9 25 38 95 101 240 46 106 157 451 197 613
10 41 53 240 58 267 24 126 37 206 41 243 3 20 7 54 11 75 24 149 29 273 29
672 0 226 -4 446 -8 490 -5 44 -10 98 -12 120 -7 62 -45 306 -55 345 -5 19
-11 49 -14 65 -38 233 -176 686 -290 952 -125 292 -231 493 -421 802 -226 366
-622 816 -1001 1138 -341 289 -758 556 -1159 740 -205 94 -519 213 -680 258
-89 25 -170 47 -185 51 -8 1 -53 12 -99 24 -146 36 -377 78 -521 95 -30 4 -66
8 -80 10 -14 2 -59 6 -100 10 -41 3 -93 9 -115 12 -37 5 -602 12 -607 8z"/>
</g>
</svg>
